<svg xmlns="http://www.w3.org/2000/svg" width="2319" height="417.904" viewBox="0 0 2319 417.904"><g transform="translate(428.5 -446)"><g transform="translate(428 398.952)"><path d="M477.242,130.962H430.4L419.635,82.331a44.73,44.73,0,0,0-43.942-35.283H213.063A44.731,44.731,0,0,0,169.12,82.33l-10.762,48.632H147.242v-20.75a21.232,21.232,0,0,0-21.208-21.207H57.462a21.232,21.232,0,0,0-21.208,21.207v20.75h-1.5A34.8,34.8,0,0,0,0,165.72V401.127a34.8,34.8,0,0,0,34.758,34.758h161.2a181.167,181.167,0,0,0,196.846,0h84.442A34.8,34.8,0,0,0,512,401.127V165.72A34.8,34.8,0,0,0,477.242,130.962Zm-288.6-44.311a24.856,24.856,0,0,1,24.416-19.6h162.63a24.853,24.853,0,0,1,24.415,19.6l9.806,44.311H392.8a181.167,181.167,0,0,0-196.846,0H178.84ZM56.254,110.212A1.209,1.209,0,0,1,57.462,109h68.571a1.209,1.209,0,0,1,1.208,1.207v20.75H56.254ZM80.305,415.884V307.267a10,10,0,0,0-20,0V415.885H34.758A14.775,14.775,0,0,1,20,401.127V165.72a14.775,14.775,0,0,1,14.758-14.758H170.394a181.224,181.224,0,0,0,0,264.922Zm306.4,0a161.378,161.378,0,1,1,69.2-132.461A161.178,161.178,0,0,1,386.707,415.885ZM492,401.126a14.774,14.774,0,0,1-14.758,14.758H418.36a181.224,181.224,0,0,0,0-264.922h58.882A14.774,14.774,0,0,1,492,165.72V401.126Z"/><path d="M294.377,152.134c-72.393,0-131.289,58.9-131.289,131.29s58.9,131.289,131.289,131.289a131.857,131.857,0,0,0,31.2-3.733,10,10,0,1,0-4.738-19.43,111.305,111.305,0,1,1,65.721-45.761,10,10,0,1,0,16.555,11.223,130.625,130.625,0,0,0,22.546-73.586C425.666,211.03,366.77,152.134,294.377,152.134Z" fill="#ec4444"/><path d="M70.305,185.527a37.235,37.235,0,1,0,37.235,37.235A37.277,37.277,0,0,0,70.305,185.527Zm0,54.471A17.235,17.235,0,1,1,87.54,222.763,17.255,17.255,0,0,1,70.305,240Z"/><path d="M375.091,379.87a10.673,10.673,0,0,0-.571-1.87,10.145,10.145,0,0,0-.92-1.72,9.517,9.517,0,0,0-1.24-1.52,9.861,9.861,0,0,0-3.25-2.17,10.089,10.089,0,0,0-1.869-.57,9.9,9.9,0,0,0-3.91,0,10.053,10.053,0,0,0-1.87.57,10.593,10.593,0,0,0-1.73.92,11.348,11.348,0,0,0-1.52,1.25,9.57,9.57,0,0,0-1.24,1.52,10.147,10.147,0,0,0-.92,1.72,10.584,10.584,0,0,0-.57,1.87,10.027,10.027,0,0,0-.2,1.96,9.85,9.85,0,0,0,.2,1.95,10.1,10.1,0,0,0,.57,1.87,9.869,9.869,0,0,0,.92,1.73,9.57,9.57,0,0,0,1.24,1.52,10.505,10.505,0,0,0,1.52,1.24,10.677,10.677,0,0,0,1.73.92,10.076,10.076,0,0,0,1.87.57,9.654,9.654,0,0,0,3.91,0,10.065,10.065,0,0,0,1.869-.57,10.552,10.552,0,0,0,1.73-.92,10.028,10.028,0,0,0,4.251-10.27Z"/></g><text transform="translate(1004 773)" font-size="300" font-family="Dosis-Bold, Dosis" font-weight="700"><tspan x="0" y="0">WANE</tspan></text><text transform="translate(-319 773)" font-size="300" font-family="Dosis-Bold, Dosis" font-weight="700"><tspan x="0" y="0">KADR</tspan></text><g transform="translate(28 -33)"><line y1="120" transform="translate(-446.5 498.5)" fill="none" stroke="#000" stroke-width="20"/><line x1="120" transform="translate(-456.5 508.5)" fill="none" stroke="#000" stroke-width="20"/></g><g transform="translate(1770.5 465.5)"><line y1="120" transform="translate(110)" fill="none" stroke="#000" stroke-width="20"/><line x2="120" transform="translate(0 10)" fill="none" stroke="#000" stroke-width="20"/></g><g transform="translate(-428.5 743.5)"><line y2="120" transform="translate(10)" fill="none" stroke="#000" stroke-width="20"/><line x1="120" transform="translate(0 110)" fill="none" stroke="#000" stroke-width="20"/></g><g transform="translate(1770.5 743.5)"><line y2="120" transform="translate(110)" fill="none" stroke="#000" stroke-width="20"/><line x2="120" transform="translate(0 110)" fill="none" stroke="#000" stroke-width="20"/></g></g></svg>